<?xml version="1.0" encoding="utf-8"?>
<!-- Generator: Adobe Illustrator 27.5.0, SVG Export Plug-In . SVG Version: 6.00 Build 0)  -->
<svg version="1.1" id="Layer_1" xmlns="http://www.w3.org/2000/svg" xmlns:xlink="http://www.w3.org/1999/xlink" x="0px" y="0px"
	 viewBox="0 0 5000 5000" style="enable-background:new 0 0 5000 5000;" xml:space="preserve">
<g>
	<radialGradient id="SVGID_1_" cx="2500" cy="2500" r="6351.2002" gradientUnits="userSpaceOnUse">
		<stop  offset="0" style="stop-color:#FFFFFF"/>
		<stop  offset="0.1611" style="stop-color:#FCFFFF"/>
		<stop  offset="0.2914" style="stop-color:#F2FFFF"/>
		<stop  offset="0.411" style="stop-color:#E1FFFF"/>
		<stop  offset="0.5241" style="stop-color:#C9FFFF"/>
		<stop  offset="0.6328" style="stop-color:#AAFFFF"/>
		<stop  offset="0.738" style="stop-color:#84FFFF"/>
		<stop  offset="0.8406" style="stop-color:#57FFFF"/>
		<stop  offset="0.9385" style="stop-color:#24FFFF"/>
		<stop  offset="1" style="stop-color:#00FFFF"/>
	</radialGradient>
	<rect style="fill:url(#SVGID_1_);" width="5000" height="5000"/>
	<defs>
		<filter id="Adobe_OpacityMaskFilter" filterUnits="userSpaceOnUse" x="827" y="4043.823" width="3346" height="364.391">
			<feFlood  style="flood-color:white;flood-opacity:1" result="back"/>
			<feBlend  in="SourceGraphic" in2="back" mode="normal"/>
		</filter>
	</defs>
	
		<mask maskUnits="userSpaceOnUse" x="827" y="4043.823" width="3346" height="364.391" id="SVGID_00000006670665049731327880000014925874665377845903_">
		<g style="filter:url(#Adobe_OpacityMaskFilter);">
			<defs>
				
					<filter id="Adobe_OpacityMaskFilter_00000010306725805042197770000015925473869721911971_" filterUnits="userSpaceOnUse" x="827" y="4043.823" width="3346" height="364.391">
					<feFlood  style="flood-color:white;flood-opacity:1" result="back"/>
					<feBlend  in="SourceGraphic" in2="back" mode="normal"/>
				</filter>
			</defs>
			
				<mask maskUnits="userSpaceOnUse" x="827" y="4043.823" width="3346" height="364.391" id="SVGID_00000006670665049731327880000014925874665377845903_">
				<g style="filter:url(#Adobe_OpacityMaskFilter_00000010306725805042197770000015925473869721911971_);">
				</g>
			</mask>
			
				<radialGradient id="SVGID_00000110446971688190430400000008405891613706959294_" cx="2500.1802" cy="18112.6309" r="1377.215" gradientTransform="matrix(1.2864 0 0 0.1401 -716.2318 1688.4395)" gradientUnits="userSpaceOnUse">
				<stop  offset="0" style="stop-color:#FFFFFF"/>
				<stop  offset="0.658" style="stop-color:#585858"/>
				<stop  offset="1" style="stop-color:#000000"/>
			</radialGradient>
			
				<ellipse style="mask:url(#SVGID_00000006670665049731327880000014925874665377845903_);fill:url(#SVGID_00000110446971688190430400000008405891613706959294_);" cx="2500" cy="4226.019" rx="1673" ry="182.196"/>
		</g>
	</mask>
	
		<radialGradient id="SVGID_00000062886069024140043510000004648306615478927493_" cx="2500.1802" cy="18112.6309" r="1377.215" gradientTransform="matrix(1.2864 0 0 0.1401 -716.2318 1688.4395)" gradientUnits="userSpaceOnUse">
		<stop  offset="0" style="stop-color:#666666"/>
		<stop  offset="0.0096" style="stop-color:#686868"/>
		<stop  offset="0.3565" style="stop-color:#A8A8A8"/>
		<stop  offset="0.6489" style="stop-color:#D7D7D7"/>
		<stop  offset="0.8723" style="stop-color:#F4F4F4"/>
		<stop  offset="1" style="stop-color:#FFFFFF"/>
	</radialGradient>
	
		<ellipse style="fill:url(#SVGID_00000062886069024140043510000004648306615478927493_);" cx="2500" cy="4226.019" rx="1673" ry="182.196"/>
</g>
<g>
	<g>
		
			<linearGradient id="SVGID_00000002381559693229670920000017314578108523925669_" gradientUnits="userSpaceOnUse" x1="1005.024" y1="2983.1863" x2="4005.0232" y2="2983.1863">
			<stop  offset="0" style="stop-color:#082255"/>
			<stop  offset="0.2107" style="stop-color:#1E8DC2"/>
			<stop  offset="0.3624" style="stop-color:#2AC6FF"/>
			<stop  offset="0.45" style="stop-color:#1D7AB3"/>
			<stop  offset="0.6921" style="stop-color:#0A2250"/>
			<stop  offset="0.8574" style="stop-color:#1E9ACE"/>
			<stop  offset="1" style="stop-color:#28C7FF"/>
		</linearGradient>
		<path style="fill:url(#SVGID_00000002381559693229670920000017314578108523925669_);" d="M1005.024,1967.358v1216.536
			c0,449.462,365.7,815.121,815.226,815.121h1369.656c449.461,0,815.117-365.659,815.117-815.121V2955.38
			c-144.725,17.03-291.899,26.057-441.2,26.057C2573.646,2981.436,1673.589,2596.079,1005.024,1967.358z"/>
		
			<linearGradient id="SVGID_00000057118069090955015360000013884238128581706905_" gradientUnits="userSpaceOnUse" x1="1005.024" y1="1990.2256" x2="4005.0232" y2="1990.2256">
			<stop  offset="0" style="stop-color:#28C7FF"/>
			<stop  offset="0.1426" style="stop-color:#1E9ACE"/>
			<stop  offset="0.3079" style="stop-color:#0A2250"/>
			<stop  offset="0.55" style="stop-color:#1D7AB3"/>
			<stop  offset="0.6376" style="stop-color:#2AC6FF"/>
			<stop  offset="0.7893" style="stop-color:#1E8DC2"/>
			<stop  offset="1" style="stop-color:#082255"/>
		</linearGradient>
		<path style="fill:url(#SVGID_00000057118069090955015360000013884238128581706905_);" d="M3189.906,999.015H1820.25
			c-449.526,0-815.226,365.658-815.226,815.11v153.234c668.565,628.721,1568.623,1014.078,2558.799,1014.078
			c149.301,0,296.475-9.027,441.2-26.057V1814.124C4005.023,1364.673,3639.367,999.015,3189.906,999.015z"/>
		<path style="fill:#FFFFFF;" d="M1820.249,3799.753c-339.647,0-615.965-276.276-615.965-615.859v-1369.77
			c0-339.583,276.318-615.848,615.965-615.848h1369.657c339.582,0,615.857,276.265,615.857,615.848v1369.77
			c0,339.583-276.275,615.859-615.857,615.859H1820.249z"/>
		
			<linearGradient id="SVGID_00000031189349799983238080000006141877212746467733_" gradientUnits="userSpaceOnUse" x1="1135.9142" y1="2997.342" x2="3874.1497" y2="2000.7059">
			<stop  offset="0" style="stop-color:#28C7FF"/>
			<stop  offset="0.1426" style="stop-color:#1E9ACE"/>
			<stop  offset="0.3079" style="stop-color:#0A2250"/>
			<stop  offset="0.55" style="stop-color:#1D7AB3"/>
			<stop  offset="0.6376" style="stop-color:#2AC6FF"/>
			<stop  offset="0.7893" style="stop-color:#1E8DC2"/>
			<stop  offset="1" style="stop-color:#082255"/>
		</linearGradient>
		<path style="fill:url(#SVGID_00000031189349799983238080000006141877212746467733_);" d="M1806.002,3759.014
			c-309.325,0-560.979-251.61-560.979-560.87V1799.875c0-309.26,251.653-560.859,560.979-560.859h1398.153
			c309.259,0,560.868,251.599,560.868,560.859v1398.269c0,309.26-251.609,560.87-560.868,560.87H1806.002z"/>
		
			<linearGradient id="SVGID_00000023253977870609999320000012692332897225523873_" gradientUnits="userSpaceOnUse" x1="1523.192" y1="2021.7208" x2="3669.6074" y2="3065.1172">
			<stop  offset="0" style="stop-color:#AAFF0B"/>
			<stop  offset="0.0862" style="stop-color:#A4F514"/>
			<stop  offset="0.2311" style="stop-color:#95DB2C"/>
			<stop  offset="0.4167" style="stop-color:#7BB154"/>
			<stop  offset="0.636" style="stop-color:#58768A"/>
			<stop  offset="0.8807" style="stop-color:#2C2CCF"/>
			<stop  offset="1" style="stop-color:#1505F3"/>
		</linearGradient>
		<path style="fill:url(#SVGID_00000023253977870609999320000012692332897225523873_);" d="M1810.223,3684.013
			c-270.295,0-490.199-219.85-490.199-490.091V1804.096c0-270.23,219.904-490.08,490.199-490.08h1389.712
			c270.229,0,490.089,219.85,490.089,490.08v1389.827c0,270.241-219.86,490.091-490.089,490.091H1810.223z"/>
		<defs>
			
				<filter id="Adobe_OpacityMaskFilter_00000162316521639304674660000013187651778759931018_" filterUnits="userSpaceOnUse" x="1411.338" y="1405.335" width="2187.369" height="1818.768">
				<feFlood  style="flood-color:white;flood-opacity:1" result="back"/>
				<feBlend  in="SourceGraphic" in2="back" mode="normal"/>
			</filter>
		</defs>
		
			<mask maskUnits="userSpaceOnUse" x="1411.338" y="1405.335" width="2187.369" height="1818.768" id="SVGID_00000120555973491908130910000016205723680230754473_">
			<g style="filter:url(#Adobe_OpacityMaskFilter_00000162316521639304674660000013187651778759931018_);">
				<defs>
					
						<filter id="Adobe_OpacityMaskFilter_00000134962166626899799760000016361246378587582607_" filterUnits="userSpaceOnUse" x="1411.338" y="1405.335" width="2187.369" height="1818.768">
						<feFlood  style="flood-color:white;flood-opacity:1" result="back"/>
						<feBlend  in="SourceGraphic" in2="back" mode="normal"/>
					</filter>
				</defs>
				
					<mask maskUnits="userSpaceOnUse" x="1411.338" y="1405.335" width="2187.369" height="1818.768" id="SVGID_00000120555973491908130910000016205723680230754473_">
					<g style="filter:url(#Adobe_OpacityMaskFilter_00000134962166626899799760000016361246378587582607_);">
					</g>
				</mask>
				
					<linearGradient id="SVGID_00000092448450824532680400000010613596747125149343_" gradientUnits="userSpaceOnUse" x1="2505.0227" y1="1380.9159" x2="2505.0227" y2="2701.2561">
					<stop  offset="0" style="stop-color:#FFFFFF"/>
					<stop  offset="1" style="stop-color:#000000"/>
				</linearGradient>
				
					<path style="mask:url(#SVGID_00000120555973491908130910000016205723680230754473_);fill:url(#SVGID_00000092448450824532680400000010613596747125149343_);" d="
					M3264.073,2203.974c113.781,0,225.532,8.691,334.634,25.421V1804.1c0-219.882-178.89-398.765-398.772-398.765H1810.222
					c-219.949,0-398.884,178.883-398.884,398.765v1389.817c0,10.165,0.508,20.209,1.26,30.186
					C1800.723,2611.059,2484.819,2203.974,3264.073,2203.974z"/>
			</g>
		</mask>
		
			<linearGradient id="SVGID_00000000904418567143418970000007768805964913413814_" gradientUnits="userSpaceOnUse" x1="2505.0227" y1="1380.9159" x2="2505.0227" y2="2701.2561">
			<stop  offset="0" style="stop-color:#FFFFFF"/>
			<stop  offset="1" style="stop-color:#000000"/>
		</linearGradient>
		<path style="fill:url(#SVGID_00000000904418567143418970000007768805964913413814_);" d="M3264.073,2203.974
			c113.781,0,225.532,8.691,334.634,25.421V1804.1c0-219.882-178.89-398.765-398.772-398.765H1810.222
			c-219.949,0-398.884,178.883-398.884,398.765v1389.817c0,10.165,0.508,20.209,1.26,30.186
			C1800.723,2611.059,2484.819,2203.974,3264.073,2203.974z"/>
	</g>
	<g>
		<g>
			<g>
				<g>
					<path style="fill:#0F1456;" d="M3390.024,2332.098c0-143.178-55.726-277.815-157.009-379.098
						c-101.282-101.283-236.021-157.11-379.2-157.11l-3.254,0.102l-4.169-0.102c-153.246,0-298.967,65.183-401.368,177.143
						c-3.051-3.355-6.101-6.609-8.745-9.457c-1.83-1.932-3.66-3.762-5.186-5.287c-2.237-2.339-4.576-4.576-7.322-7.22
						c-1.627-1.627-3.254-3.254-4.78-4.678c-1.932-1.83-3.865-3.661-6.305-5.898l-5.186-4.78c-2.034-1.83-4.067-3.661-5.898-5.288
						l-5.796-4.983c-6.203-5.287-12.61-10.474-18.915-15.456c-2.135-1.627-4.373-3.356-6.203-4.678
						c-2.136-1.627-4.271-3.254-6.407-4.78c-4.373-3.152-8.745-6.305-13.118-9.253c-2.237-1.526-4.474-3.051-6.406-4.373
						c-2.135-1.424-4.373-2.848-7.118-4.678c-2.237-1.424-4.474-2.847-7.017-4.474l-1.729-1.017
						c-1.525-0.915-3.051-1.83-4.576-2.746c-1.424-0.915-2.847-1.728-4.271-2.644l-2.034-1.22
						c-12.508-7.321-25.524-14.236-38.845-20.643l-5.797-2.746c-18.202-8.44-36.913-15.965-55.319-22.168
						c-2.034-0.712-4.169-1.424-6.203-2.136c-8.44-2.745-17.083-5.287-25.524-7.525c-1.729-0.508-3.356-0.915-4.983-1.322
						c-1.83-0.508-3.661-1.017-4.78-1.22c-10.779-2.746-21.863-5.186-32.947-7.22c-2.237-0.407-4.576-0.916-6.305-1.119
						c-8.135-1.525-16.372-2.745-25.422-3.864l-5.491-0.61c-2.339-0.305-4.678-0.61-7.118-0.813l-4.779-0.509
						c-4.983-0.407-9.966-0.813-15.457-1.119c-1.729-0.203-3.559-0.305-4.576-0.305c-1.831-0.102-3.763-0.204-5.186-0.305
						c-2.237-0.102-4.576-0.203-7.118-0.305l-9.965-0.204h-1.22l-7.423-0.102c-2.034,0-3.966,0-5.084,0.102l-2.238-0.102
						c-143.28,0-277.917,55.827-379.2,157.11c-101.283,101.283-157.009,235.92-157.009,379.098v7.424c0,4.677,0,9.253,0.102,14.236
						l0.406,9.051l0.305,7.627l0.508,7.729c0.406,5.084,0.814,10.169,1.322,15.355l0.712,6.203v0.916
						c0.102,0.203,0.102,0.406,0.102,0.508c0,0.305,0.101,0.508,0.101,0.813c0,0.305,0,0.712,0.102,1.119
						c20.643,202.159,129.756,407.571,324.186,610.645c173.482,181.109,377.98,322.152,519.023,408.486
						c22.575,13.83,45.252,27.354,67.929,40.371l5.084,2.847c7.83,4.474,16.474,6.712,25.117,6.712
						c8.745,0,17.389-2.238,25.219-6.712l5.39-3.051c21.965-12.711,44.744-26.236,67.522-40.167
						c141.043-86.334,345.541-227.377,519.023-408.486c195.345-203.989,304.458-410.418,324.389-612.679
						c2.339-20.542,3.457-41.184,3.457-61.522v-4.068v-0.305V2332.098z M3288.334,2339.522c0,16.575-0.915,33.354-2.847,50.845
						c-17.694,179.787-117.553,365.878-296.73,552.987c-165.957,173.279-362.828,308.933-498.685,392.115
						c-15.152,9.253-30.201,18.304-45.048,27.049c-14.948-8.847-30.1-17.796-45.049-27.049
						c-135.857-83.182-332.728-218.836-498.685-392.115c-178.668-186.499-278.426-371.98-296.527-551.361
						c0-0.406-0.102-0.712-0.102-1.017c-0.102-0.508-0.102-1.017-0.203-1.627l-0.61-5.796c-0.407-4.169-0.712-8.338-1.017-12.406
						l-1.017-20.134c-0.102-3.762-0.102-7.627-0.102-11.491v-7.424c0-116.027,45.15-225.14,127.214-307.203
						c41.082-41.083,88.876-72.81,140.941-94.47c52.065-21.558,108.401-32.845,166.466-32.845l2.339,0.102
						c0.407,0,0.712,0,1.119-0.102h3.762l28.676,0.915c0.203,0,1.017,0.101,1.322,0.101c3.762,0.204,7.525,0.509,11.897,0.916
						l3.559,0.406c0.407,0,0.712,0.102,1.118,0.102c1.322,0.102,2.542,0.305,4.474,0.508l5.39,0.61
						c6.61,0.915,13.219,1.831,20.236,3.051c1.627,0.305,3.051,0.61,4.78,0.915c9.05,1.627,17.999,3.661,27.456,6
						c0.916,0.203,1.729,0.407,2.644,0.712c0.509,0.102,1.017,0.305,1.627,0.407l1.525,0.406c0.407,0.102,0.814,0.204,1.22,0.305
						c7.017,1.932,14.033,3.966,20.847,6.203l4.881,1.627c15.152,5.084,30.303,11.185,45.252,18.202l4.677,2.136
						c10.779,5.186,21.355,10.88,31.016,16.474l5.186,3.152c0.305,0.203,0.712,0.407,1.119,0.712l4.881,2.949
						c1.729,1.118,3.457,2.237,5.389,3.458l5.695,3.762c1.729,1.118,3.458,2.339,5.288,3.559c3.458,2.339,7.017,4.881,10.372,7.321
						c1.729,1.221,3.457,2.542,5.491,4.068c1.627,1.22,3.254,2.542,4.882,3.763c5.186,4.068,10.27,8.135,14.846,12.101l5.085,4.372
						c1.627,1.424,3.152,2.746,4.983,4.474l14.338,13.423c1.525,1.526,3.152,3.152,5.084,5.084c1.017,1.119,2.135,2.136,3.661,3.763
						c2.949,3.051,5.796,6.102,8.847,9.457c7.322,8.135,14.44,16.677,21.456,25.524l7.017,9.355c1.22,1.729,2.542,3.458,3.763,5.186
						c9.457,13.423,24.914,21.456,41.388,21.456h0.102c16.474,0,31.829-7.931,41.387-21.354
						c82.877-116.129,217.514-185.583,359.981-185.583l4.169,0.102l3.254-0.102c116.028,0,225.141,45.252,307.305,127.315
						c82.063,82.063,127.213,191.176,127.213,307.509V2339.522z"/>
				</g>
				<g>
					<path style="fill:#0F1456;" d="M2551.302,3257.592c-17.279,0-33.923-8.838-43.397-24.33
						c-157.976-258.404-223.558-558.746-192.495-858.124c-41.162,96.178-72.007,197.47-91.421,301.325
						c-4.479,23.962-25.353,41.381-49.732,41.5c-73.546,0.357-124.222,0.725-174.908,1.082
						c-50.745,0.357-101.491,0.715-175.126,1.083c-0.079,0-0.169,0-0.258,0c-27.965,0-50.696-22.602-50.835-50.596
						c-0.139-28.074,22.513-50.954,50.596-51.093c73.546-0.358,124.222-0.725,174.908-1.083
						c40.646-0.288,81.292-0.576,133.706-0.864c46.088-213.796,137.479-416.142,265.684-587.515
						c15.055-20.119,42.553-26.237,64.718-14.37c22.155,11.867,32.314,38.134,23.913,61.818
						c-98.819,278.643-101.818,573.711-13.198,842.175c2.413-90.349,14.717-179.784,36.882-266.041
						c5.76-22.384,25.879-38.074,48.998-38.183l494.356-2.473c0.079,0,0.169,0,0.258,0c27.965,0,50.696,22.602,50.835,50.596
						c0.139,28.084-22.513,50.954-50.597,51.093l-454.375,2.274c-33.844,155.166-33.526,320.282,1.152,480.085
						c5.263,24.241-7.736,48.749-30.765,57.975C2564.033,3256.4,2557.618,3257.592,2551.302,3257.592z"/>
				</g>
			</g>
		</g>
		<g>
			<g>
				<path style="fill:#FFFFFF;" d="M3450.024,2272.098c0-143.178-55.726-277.815-157.009-379.098
					c-101.282-101.283-236.021-157.11-379.2-157.11l-3.254,0.102l-4.169-0.102c-153.246,0-298.967,65.183-401.368,177.143
					c-3.051-3.355-6.101-6.609-8.745-9.457c-1.83-1.932-3.66-3.762-5.186-5.287c-2.237-2.339-4.576-4.576-7.322-7.22
					c-1.627-1.627-3.254-3.254-4.78-4.678c-1.932-1.83-3.865-3.661-6.305-5.898l-5.186-4.78c-2.034-1.83-4.067-3.661-5.898-5.288
					l-5.796-4.983c-6.203-5.287-12.61-10.474-18.915-15.456c-2.135-1.627-4.373-3.356-6.203-4.678
					c-2.136-1.627-4.271-3.254-6.407-4.78c-4.373-3.152-8.745-6.305-13.118-9.253c-2.237-1.526-4.474-3.051-6.406-4.373
					c-2.135-1.424-4.373-2.848-7.118-4.678c-2.237-1.424-4.474-2.847-7.017-4.474l-1.729-1.017c-1.525-0.915-3.051-1.83-4.576-2.746
					c-1.424-0.915-2.847-1.728-4.271-2.644l-2.034-1.22c-12.508-7.321-25.524-14.236-38.845-20.643l-5.797-2.746
					c-18.202-8.44-36.913-15.965-55.319-22.168c-2.034-0.712-4.169-1.424-6.203-2.136c-8.44-2.745-17.083-5.287-25.524-7.525
					c-1.729-0.508-3.356-0.915-4.983-1.322c-1.83-0.508-3.661-1.017-4.78-1.22c-10.779-2.746-21.863-5.186-32.947-7.22
					c-2.237-0.407-4.576-0.916-6.305-1.119c-8.135-1.525-16.372-2.745-25.422-3.864l-5.491-0.61
					c-2.339-0.305-4.678-0.61-7.118-0.813l-4.779-0.509c-4.983-0.407-9.966-0.813-15.457-1.119
					c-1.729-0.203-3.559-0.305-4.576-0.305c-1.831-0.102-3.763-0.204-5.186-0.305c-2.237-0.102-4.576-0.203-7.118-0.305
					l-9.965-0.204h-1.22l-7.423-0.102c-2.034,0-3.966,0-5.084,0.102l-2.238-0.102c-143.28,0-277.917,55.827-379.2,157.11
					c-101.283,101.283-157.009,235.92-157.009,379.098v7.424c0,4.677,0,9.253,0.102,14.236l0.406,9.051l0.305,7.627l0.508,7.729
					c0.406,5.084,0.814,10.169,1.322,15.355l0.712,6.203v0.916c0.102,0.203,0.102,0.406,0.102,0.508
					c0,0.305,0.101,0.508,0.101,0.813c0,0.305,0,0.712,0.102,1.119c20.643,202.159,129.756,407.571,324.186,610.645
					c173.482,181.109,377.98,322.152,519.023,408.486c22.575,13.83,45.252,27.354,67.929,40.371l5.084,2.847
					c7.83,4.474,16.474,6.712,25.117,6.712c8.745,0,17.389-2.238,25.219-6.712l5.39-3.051
					c21.965-12.711,44.744-26.236,67.522-40.167c141.043-86.334,345.541-227.377,519.023-408.486
					c195.345-203.989,304.458-410.418,324.389-612.679c2.339-20.542,3.457-41.184,3.457-61.522v-4.068v-0.305V2272.098z
					 M3348.334,2279.522c0,16.575-0.915,33.354-2.847,50.845c-17.694,179.787-117.553,365.878-296.73,552.987
					c-165.957,173.279-362.828,308.933-498.685,392.115c-15.152,9.253-30.201,18.304-45.048,27.049
					c-14.948-8.847-30.1-17.796-45.049-27.049c-135.857-83.182-332.728-218.836-498.685-392.115
					c-178.668-186.499-278.426-371.98-296.527-551.361c0-0.406-0.102-0.712-0.102-1.017c-0.102-0.508-0.102-1.017-0.203-1.627
					l-0.61-5.796c-0.407-4.169-0.712-8.338-1.017-12.406l-1.017-20.134c-0.102-3.762-0.102-7.627-0.102-11.491v-7.424
					c0-116.027,45.15-225.14,127.214-307.203c41.082-41.083,88.876-72.81,140.941-94.47
					c52.065-21.558,108.401-32.845,166.465-32.845l2.339,0.102c0.407,0,0.712,0,1.119-0.102h3.762l28.677,0.915
					c0.203,0,1.017,0.101,1.322,0.101c3.762,0.204,7.525,0.509,11.897,0.916l3.559,0.406c0.407,0,0.712,0.102,1.118,0.102
					c1.322,0.102,2.542,0.305,4.474,0.508l5.39,0.61c6.61,0.915,13.219,1.831,20.236,3.051c1.627,0.305,3.051,0.61,4.78,0.915
					c9.05,1.627,17.999,3.661,27.456,6c0.916,0.203,1.729,0.407,2.644,0.712c0.509,0.102,1.017,0.305,1.627,0.407l1.525,0.406
					c0.407,0.102,0.814,0.204,1.22,0.305c7.017,1.932,14.033,3.966,20.847,6.203l4.881,1.627
					c15.152,5.084,30.303,11.185,45.252,18.202l4.677,2.136c10.779,5.186,21.355,10.88,31.016,16.474l5.186,3.152
					c0.305,0.203,0.712,0.407,1.119,0.712l4.881,2.949c1.729,1.118,3.457,2.237,5.389,3.458l5.695,3.762
					c1.729,1.118,3.458,2.339,5.288,3.559c3.458,2.339,7.017,4.881,10.372,7.321c1.729,1.221,3.457,2.542,5.491,4.068
					c1.627,1.22,3.254,2.542,4.882,3.763c5.186,4.068,10.27,8.135,14.846,12.101l5.085,4.372c1.627,1.424,3.152,2.746,4.983,4.474
					l14.338,13.423c1.525,1.526,3.152,3.152,5.084,5.084c1.017,1.119,2.135,2.136,3.661,3.763c2.949,3.051,5.796,6.102,8.847,9.457
					c7.322,8.135,14.44,16.677,21.456,25.524l7.017,9.355c1.22,1.729,2.542,3.458,3.763,5.186
					c9.457,13.423,24.914,21.456,41.388,21.456h0.102c16.474,0,31.829-7.931,41.387-21.355
					c82.877-116.129,217.514-185.583,359.981-185.583l4.169,0.102l3.254-0.102c116.028,0,225.141,45.252,307.305,127.315
					c82.063,82.063,127.213,191.176,127.213,307.509V2279.522z"/>
			</g>
			<g>
				<path style="fill:#FFFFFF;" d="M2611.302,3197.592c-17.279,0-33.923-8.838-43.397-24.33
					c-157.976-258.404-223.558-558.746-192.495-858.124c-41.162,96.178-72.007,197.47-91.421,301.325
					c-4.479,23.962-25.353,41.381-49.732,41.5c-73.546,0.357-124.222,0.725-174.908,1.082
					c-50.745,0.357-101.491,0.715-175.126,1.083c-0.079,0-0.169,0-0.258,0c-27.965,0-50.696-22.602-50.835-50.596
					c-0.139-28.074,22.513-50.954,50.596-51.093c73.546-0.358,124.222-0.725,174.908-1.083c40.646-0.288,81.292-0.576,133.706-0.864
					c46.088-213.796,137.479-416.142,265.684-587.515c15.055-20.119,42.553-26.237,64.718-14.37
					c22.155,11.867,32.314,38.134,23.913,61.818c-98.819,278.643-101.818,573.711-13.198,842.175
					c2.413-90.349,14.717-179.784,36.882-266.041c5.76-22.384,25.879-38.074,48.998-38.183l494.356-2.473c0.079,0,0.169,0,0.258,0
					c27.965,0,50.696,22.602,50.835,50.596c0.139,28.084-22.513,50.954-50.597,51.093l-454.375,2.274
					c-33.844,155.166-33.526,320.282,1.152,480.085c5.263,24.241-7.736,48.749-30.765,57.975
					C2624.033,3196.4,2617.618,3197.592,2611.302,3197.592z"/>
			</g>
		</g>
	</g>
</g>
</svg>
